<svg width="62" height="62" viewBox="0 0 62 62" fill="none" xmlns="http://www.w3.org/2000/svg">
<path d="M39.8036 0.00057034C45.5598 0.0376012 50.9649 2.21463 55.0224 6.13143C59.0948 10.0632 61.3705 15.32 61.4296 20.9332C61.5065 28.2096 57.8006 34.9258 51.5175 38.8971C48.9786 40.5021 47.678 43.422 48.2822 46.1627C48.5006 47.1549 48.5953 48.1771 48.5634 49.2008C48.465 52.3478 47.1621 55.3331 44.8945 57.606C42.6393 59.8668 39.6294 61.2201 36.4208 61.4156C36.1495 61.4325 35.8778 61.44 35.6074 61.44C32.1612 61.4399 28.8433 60.1064 26.3984 57.7154C23.7444 55.1195 22.6444 51.2918 23.2177 46.6451C24.2803 38.0357 23.3042 31.7243 19.8495 24.8609C18.2123 21.6074 17.8343 18.2689 18.7558 15.2066C20.0594 10.8764 22.8295 6.98734 26.5556 4.25643C30.3968 1.44137 34.973 -0.0293736 39.8036 0.00057034ZM39.7812 3.60018C35.735 3.58002 31.8968 4.80578 28.6835 7.16073C25.5842 9.43182 23.2821 12.6583 22.2031 16.2447C21.3805 18.9779 22.2179 21.5591 23.0654 23.2428C27.7842 32.6172 27.5967 40.5569 26.791 47.0865C26.3541 50.626 27.0686 53.3366 28.915 55.1422C30.8261 57.0111 33.481 57.9873 36.2021 57.8219C38.5308 57.6803 40.713 56.7008 42.3456 55.064C43.9652 53.4408 44.8954 51.3183 44.9648 49.0885C44.9877 48.3628 44.9208 47.6383 44.7665 46.9371C44.3012 44.825 44.528 42.6483 45.4218 40.6412C46.2937 38.6837 47.737 37.0283 49.5947 35.8541C54.815 32.5545 57.8933 26.9904 57.83 20.9713C57.7812 16.3293 55.8964 11.9786 52.5224 8.72127C49.1334 5.44992 44.6083 3.63118 39.7812 3.60018ZM11.1298 24.9791C11.8211 24.2653 12.9613 24.2469 13.6747 24.9381C17.1561 28.3111 19.0731 32.8072 19.0732 37.5973C19.0732 42.3873 17.1565 46.8833 13.6757 50.2564C13.326 50.5953 12.8737 50.7642 12.4228 50.7642C11.9526 50.7642 11.4828 50.5806 11.1298 50.2164C10.4382 49.5025 10.4561 48.3633 11.1699 47.6715C13.9453 44.9823 15.4736 41.4044 15.4736 37.5973C15.4735 33.7906 13.9453 30.2132 11.1699 27.524C10.4561 26.8322 10.4382 25.693 11.1298 24.9791ZM5.86908 30.0767C6.56048 29.3628 7.7006 29.3439 8.41497 30.0357C10.4957 32.0522 11.6415 34.738 11.6415 37.5973C11.6415 40.4571 10.4957 43.1432 8.41497 45.1598C8.06529 45.4982 7.61298 45.6666 7.16204 45.6666C6.69142 45.6666 6.22204 45.483 5.86908 45.1187C5.17744 44.4048 5.19529 43.2656 5.90911 42.5738C7.28443 41.2416 8.04095 39.4741 8.04095 37.5973C8.04088 35.7209 7.28436 33.9538 5.90911 32.6217C5.1953 31.9299 5.17744 30.7907 5.86908 30.0767ZM0.531185 33.7994C1.23665 33.0986 2.3763 33.1022 3.07708 33.8072C5.03819 35.7811 5.03818 38.9925 3.07708 40.9664C2.72552 41.3203 2.2624 41.4976 1.79974 41.4976C1.34092 41.4976 0.882212 41.3234 0.531185 40.9742C-0.173768 40.2734 -0.177393 39.1343 0.523373 38.4293C1.09429 37.8546 1.09429 36.919 0.523373 36.3443C-0.177395 35.6393 -0.173775 34.4997 0.531185 33.7994ZM39.6572 8.52498C46.8124 8.52522 52.6337 14.1908 52.6337 21.1549C52.6336 22.149 51.8271 22.9547 50.8329 22.9547C49.8393 22.9546 49.0332 22.1489 49.0331 21.1549C49.0331 16.1759 44.8273 12.1248 39.6572 12.1246C35.2083 12.1246 31.4728 15.1251 30.5175 19.1344C31.6686 19.1775 32.8084 19.4644 33.8329 19.9879C36.5248 21.3633 38.2048 24.2717 38.0126 27.2252C37.8237 30.1323 35.8252 32.7946 33.04 33.8502C32.83 33.9294 32.6142 33.9674 32.4023 33.9674C31.6757 33.9673 30.9915 33.5238 30.7187 32.8043C30.3668 31.8749 30.8343 30.8355 31.7636 30.483C33.2532 29.9186 34.3204 28.5156 34.4199 26.9918C34.5197 25.4515 33.6258 23.9252 32.1952 23.1939C31.2348 22.7036 30.0359 22.5949 28.9882 22.9029C28.4441 23.0626 27.8564 22.9566 27.4023 22.6168C26.9481 22.2769 26.6806 21.7425 26.6806 21.1754V21.1549C26.6806 14.1906 32.5022 8.52498 39.6572 8.52498Z" fill="#FF6565"/>
</svg>
