<svg width="95" height="66" viewBox="0 0 95 66" fill="none" xmlns="http://www.w3.org/2000/svg">
<path d="M43.0088 0.0212402C44.1685 0.0212402 45.1092 0.961229 45.1094 2.12085V63.2781C45.1094 64.4379 44.1686 65.3787 43.0088 65.3787C41.8492 65.3784 40.9092 64.4377 40.9092 63.2781V2.12085C40.9094 0.961366 41.8493 0.0214615 43.0088 0.0212402ZM51.1914 5.22925C52.351 5.22941 53.291 6.1689 53.291 7.32886V58.071C53.291 59.2307 52.351 60.1705 51.1914 60.1707C50.0316 60.1707 49.0909 59.2308 49.0908 58.071V7.32886C49.0909 6.1691 50.0316 5.22925 51.1914 5.22925ZM34.8271 14.5759C35.9869 14.5759 36.9277 15.5167 36.9277 16.6765V48.7234C36.9277 49.8832 35.9869 50.824 34.8271 50.824C33.6676 50.8237 32.7275 49.883 32.7275 48.7234V16.6765C32.7275 15.5169 33.6676 14.5762 34.8271 14.5759ZM59.373 15.6443C60.5325 15.6445 61.4724 16.5844 61.4727 17.7439V47.655C61.4727 48.8147 60.5327 49.7554 59.373 49.7556C58.2132 49.7556 57.2725 48.8148 57.2725 47.655V17.7439C57.2727 16.5843 58.2134 15.6443 59.373 15.6443ZM26.6455 20.7185C27.8056 20.7186 28.7451 21.659 28.7451 22.8191V42.5818C28.7449 43.7413 27.8051 44.6813 26.6455 44.6814C25.4859 44.6814 24.5452 43.7414 24.5449 42.5818V22.8191C24.5449 21.6593 25.4857 20.7185 26.6455 20.7185ZM67.5547 21.9197C68.7145 21.9197 69.6553 22.8605 69.6553 24.0203V41.3796C69.6551 42.5393 68.7144 43.4792 67.5547 43.4792C66.3951 43.4791 65.4553 42.5392 65.4551 41.3796V24.0203C65.4551 22.8605 66.395 21.9198 67.5547 21.9197ZM18.4639 24.1902C19.6236 24.1902 20.5635 25.131 20.5635 26.2908V39.1091C20.5635 40.2689 19.6236 41.2097 18.4639 41.2097C17.3041 41.2097 16.3643 40.2689 16.3643 39.1091V26.2908C16.3643 25.131 17.3041 24.1902 18.4639 24.1902ZM75.7363 24.5916C76.8961 24.5916 77.8369 25.5314 77.8369 26.6912V38.7087C77.8369 39.8685 76.8961 40.8093 75.7363 40.8093C74.5767 40.8091 73.6367 39.8684 73.6367 38.7087V26.6912C73.6368 25.5316 74.5768 24.5918 75.7363 24.5916ZM2.09961 27.1287C3.25939 27.1287 4.20016 28.0682 4.2002 29.2283V36.1716C4.2002 37.3314 3.25941 38.2722 2.09961 38.2722C0.939989 38.272 0 37.3313 0 36.1716V29.2283C3.68465e-05 28.0686 0.940012 27.1289 2.09961 27.1287ZM10.2822 27.1287C11.4422 27.1288 12.3818 28.0683 12.3818 29.2283V36.1716C12.3818 37.3313 11.4419 38.272 10.2822 38.2722C9.12243 38.2722 8.18164 37.3314 8.18164 36.1716V29.2283C8.18168 28.0685 9.12245 27.1287 10.2822 27.1287ZM83.918 27.1287C85.0777 27.1287 86.0185 28.0682 86.0186 29.2283V36.1716C86.0186 37.3314 85.0778 38.2722 83.918 38.2722C82.7584 38.272 81.8184 37.3313 81.8184 36.1716V29.2283C81.8184 28.0686 82.7584 27.1289 83.918 27.1287ZM92.0996 27.1287C93.2594 27.1287 94.2002 28.0682 94.2002 29.2283V36.1716C94.2002 37.3314 93.2594 38.2722 92.0996 38.2722C90.94 38.272 90 37.3313 90 36.1716V29.2283C90 28.0686 90.94 27.1289 92.0996 27.1287Z" fill="#FF6565"/>
</svg>
