<svg width="68" height="77" viewBox="0 0 68 77" fill="none" xmlns="http://www.w3.org/2000/svg">
<path d="M54.4883 0C58.1889 9.87453e-05 61.4908 2.47781 62.5185 6.02441L65.0908 14.9043C65.2014 15.2863 65.156 15.6964 64.9638 16.0449C64.7716 16.3929 64.4493 16.651 64.0674 16.7617L14.9131 31.001H66.0888C66.917 31.0012 67.5886 31.6728 67.5888 32.501V68.4521C67.5888 73.0553 63.8433 76.7998 59.2402 76.7998H41.2158C40.3879 76.7997 39.7158 76.1283 39.7158 75.2998C39.7159 74.4714 40.388 73.7999 41.2158 73.7998H59.2402C62.1892 73.7998 64.5888 71.4012 64.5888 68.4521V48.0391H5.84372V68.4521C5.84372 71.4012 8.24333 73.7998 11.1924 73.7998H29.2158C30.0442 73.7998 30.7157 74.4714 30.7158 75.2998C30.7158 76.1283 30.0443 76.7998 29.2158 76.7998H11.1914C6.58884 76.7998 2.84372 73.0553 2.84372 68.4521V32.7139L0.331026 24.0391C-0.287099 21.9052 -0.0340361 19.6509 1.04392 17.6934C2.12262 15.7358 3.89178 14.3164 6.02634 13.6982L52.1777 0.329102C52.9312 0.111133 53.7084 0 54.4883 0ZM35.2158 73.7998C36.0425 73.7998 36.7157 74.4737 36.7158 75.2998C36.7158 76.126 36.0425 76.7998 35.2158 76.7998C34.3897 76.7997 33.7158 76.1259 33.7158 75.2998C33.7159 74.4738 34.3898 73.7999 35.2158 73.7998ZM30.1601 51.8594C30.6241 51.5917 31.1961 51.5916 31.6601 51.8594L44.8379 59.4678C45.3018 59.7355 45.5877 60.2306 45.5879 60.7666C45.5879 61.3027 45.3019 61.7986 44.8379 62.0664L31.6601 69.6738C31.4282 69.808 31.169 69.875 30.9101 69.875C30.6512 69.875 30.3921 69.8079 30.1601 69.6738C29.6961 69.4061 29.4101 68.9105 29.4101 68.375V53.1582C29.4103 52.6222 29.6962 52.1271 30.1601 51.8594ZM32.4101 65.7773L41.0879 60.7666L32.4101 55.7568V65.7773ZM5.84372 45.0391H12.667L19.04 34.001H5.84372V45.0391ZM16.1318 45.0391H24.4209L30.7939 34.001H22.5039L16.1318 45.0391ZM27.8847 45.0391H36.1748L42.5468 34.001H34.2578L27.8847 45.0391ZM39.6386 45.0391H47.9287L54.3008 34.001H46.0117L39.6386 45.0391ZM51.3925 45.0391H64.5888V34.001H57.7656L51.3925 45.0391ZM6.8613 16.5801C5.4961 16.9756 4.36324 17.885 3.67185 19.1406C2.98063 20.3968 2.81744 21.8396 3.21286 23.2041L5.36814 30.6426L18.6113 26.8057L7.93942 16.5557C7.86501 16.4842 7.79899 16.4062 7.74216 16.3242L6.8613 16.5801ZM11.0361 15.3701L21.708 25.6211C21.7824 25.6926 21.849 25.7705 21.9052 25.8525L29.9013 23.5361L19.2295 13.2852C19.1545 13.2131 19.0884 13.1357 19.0322 13.0537L11.0361 15.3701ZM22.3252 12.1006L32.998 22.3506C33.0729 22.422 33.1381 22.5001 33.1943 22.582L41.1904 20.2656L30.5185 10.0156C30.4441 9.94355 30.3781 9.86563 30.3213 9.78418L22.3252 12.1006ZM33.6152 8.8291L44.2871 19.0801C44.3621 19.1516 44.4281 19.2295 44.4843 19.3115L52.4804 16.9951L41.8086 6.74512C41.7336 6.6731 41.6675 6.59563 41.6113 6.51367L33.6152 8.8291ZM54.4883 3C53.9908 3 53.4943 3.07053 53.0127 3.20996L44.9052 5.55957L55.5771 15.8096C55.6519 15.8815 55.7177 15.9591 55.7744 16.041L61.792 14.2979L59.6377 6.85938C58.9791 4.58718 56.8618 3.0001 54.4883 3Z" fill="#FF6565"/>
</svg>
